# xmcd
#
# Track frame offsets: 
#        150
#        13885
#        29525
#        45375
#        59150
#        73740
#        88912
#        104057
#        118410
#        132702
#        147410
#        161255
#        175795
#        189715
#        205165
#        219522
#        234795
#        250127
#        262960
#        277917
#
# Disc length: 3916 seconds
#
# Revision: 2
# Processed by: cddbd v1.5.2PL0 Copyright (c) Steve Scherf et al.
# Submitted via: ExactAudioCopy v1.1
#
DISCID=350f4a14
DTITLE=The Mississippi Sheiks - Honey Babe Let The Deal Go Down: The B
DTITLE=est Of Mississippi Sheiks
DYEAR=2004
DGENRE=Blues
TTITLE0=Still I'm Traveling On (mono)
TTITLE1=Please Don't Wake It Up (mono)
TTITLE2=Stop And Listen Blues #2 (mono)
TTITLE3=Sitting On Top Of The World (mono)
TTITLE4=The Jazz Fiddler (mono)
TTITLE5=Seen Better Days (mono)
TTITLE6=Driving That Thing (mono)
TTITLE7=Bed Spring Poker (mono)
TTITLE8=When You're Sick With The Blues (mono)
TTITLE9=I've Got Blood In My Eyes For You (mono)
TTITLE10=Things About Comin' My Way (mono)
TTITLE11=Livin' In A Strain (mono)
TTITLE12=Last Stage Blues (mono)
TTITLE13=Frost Texas Tornado Blues (mono)
TTITLE14=Your Good Man Caught The Train And Gone (mono)
TTITLE15=Unhappy Blues (mono)
TTITLE16=Honey Babe Let The Deal Go Down (mono)
TTITLE17=Ramrod Blues (mono)
TTITLE18=West Jackson Blues (mono)
TTITLE19=Bootlegger's Blues (mono)
EXTD=
EXTT0=
EXTT1=
EXTT2=
EXTT3=
EXTT4=
EXTT5=
EXTT6=
EXTT7=
EXTT8=
EXTT9=
EXTT10=
EXTT11=
EXTT12=
EXTT13=
EXTT14=
EXTT15=
EXTT16=
EXTT17=
EXTT18=
EXTT19=
PLAYORDER=
